# xmcd
#
# Track frame offsets: 
#        150
#        21823
#        40833
#        59675
#
# Disc length: 1020 seconds
#
# Revision: 1
# Processed by: cddbd v1.5.2PL0 Copyright (c) Steve Scherf et al.
# Submitted via: ExactAudioCopy v0.95b4
#
DISCID=2f03fa04
DTITLE=Goetia / Theurgia Goetia (EP)
DYEAR=2011
DGENRE=Black Metal
TTITLE0=Void I Am Myself
TTITLE1=50.000 Breaths
TTITLE2=Hawk-Headed God Enthroned
TTITLE3=Paths Of Seth (2nd Seal)
EXTD=
EXTT0=
EXTT1=
EXTT2=
EXTT3=
PLAYORDER=
